#!OML:ASF H:\BabyWalks\Project 1\Capture day 1\Session 1\baby.ASF
:FULLY-SPECIFIED
:DEGREES
368
root -1.70315 15.964 -0.784475 -109.917 85.4466 -126.818
lowerback 24.0993 1.87168 -2.93183
upperback 3.7541 1.74184 -2.50732
thorax -9.28095 1.00653 -1.6613
lowerneck -5.51762 -1.70977 3.53476
upperneck -15.7267 -1.83392 -0.265972
head -4.25464 -0.835479 -0.686146
rclavicle -2.06736e-014 2.78299e-014
rhumerus -39.3322 14.9779 -80.5673
rradius 59.1329
rwrist -4.43355
rhand -16.0065 -19.6387
rfingers 7.12502
rthumb 10.1939 -49.3717
lclavicle -2.06736e-014 2.78299e-014
lhumerus -9.35487 -19.7838 59.9749
lradius 81.8503
lwrist -2.40335
lhand -11.483 1.49126
lfingers 7.12502
lthumb 14.5551 30.9606
rfemur -6.27667 5.10923 26.3438
rtibia 56.9212
rfoot 1.89475 15.8113
rtoes -16.221
lfemur -50.4939 1.78497 -16.4298
ltibia 76.2848
lfoot -30.8369 -17.8869
ltoes -5.43017
369
root -1.50132 16.0852 -0.781698 -109.789 85.1033 -126.689
lowerback 24.019 1.85015 -2.85425
upperback 3.5911 1.7323 -2.36303
thorax -9.4241 0.99646 -1.54453
lowerneck -5.60963 -1.7994 3.54017
upperneck -15.8289 -1.93034 -0.109479
head -4.2753 -0.886723 -0.633119
rclavicle 5.56597e-015 -1.35174e-014
rhumerus -39.7367 15.0445 -79.5612
rradius 59.3964
rwrist -4.67775
rhand -15.964 -19.5622
rfingers 7.12502
rthumb 10.2349 -49.2932
lclavicle 5.56597e-015 -1.35174e-014
lhumerus -8.79993 -19.7874 58.52
lradius 83.8763
lwrist -1.77788
lhand -11.2826 1.69701
lfingers 7.12502
lthumb 14.7483 31.1523
rfemur -7.55032 3.53905 26.2019
rtibia 59.5265
rfoot 2.43943 15.1578
rtoes -15.4116
lfemur -48.9909 1.51818 -15.8888
ltibia 74.9027
lfoot -30.6007 -18.0856
ltoes -5.83539
370
root -1.30063 16.2138 -0.779907 -109.569 84.8541 -126.444
lowerback 23.9467 1.82901 -2.84545
upperback 3.44868 1.70796 -2.22203
thorax -9.5501 0.982602 -1.38702
lowerneck -5.66017 -1.88866 3.58186
upperneck -15.9749 -2.02603 0.0322724
head -4.32082 -0.93938 -0.591079
rclavicle 1.19271e-014 -4.13472e-014
rhumerus -40.0683 15.1356 -78.4383
rradius 59.6156
rwrist -4.93061
rhand -15.8894 -19.4882
rfingers 7.12502
rthumb 10.3068 -49.2156
lclavicle 1.19271e-014 -4.13472e-014
lhumerus -8.1762 -19.6148 56.8897
lradius 85.7771
lwrist -1.03603
lhand -11.1743 1.95164
lfingers 7.12502
lthumb 14.8525 31.3993
rfemur -9.06845 1.96584 25.9399
rtibia 62.7125
rfoot 2.39633 14.608
rtoes -14.4992
lfemur -47.3792 1.21454 -15.4395
ltibia 73.3369
lfoot -30.281 -18.2164
ltoes -6.28666
371
root -1.10085 16.3487 -0.779008 -109.348 84.7032 -126.159
lowerback 23.8894 1.8127 -2.90708
upperback 3.32777 1.67404 -2.08232
thorax -9.66152 0.967709 -1.18753
lowerneck -5.6623 -1.98177 3.65698
upperneck -16.1508 -2.12737 0.159453
head -4.38772 -0.996963 -0.559095
rclavicle 1.90833e-014 -7.15625e-015
rhumerus -40.3366 15.2333 -77.1886
rradius 59.7817
rwrist -5.17716
rhand -15.7818 -19.4201
rfingers 7.12502
rthumb 10.4106 -49.1424
lclavicle 1.90833e-014 -7.15625e-015
lhumerus -7.4752 -19.2705 55.1034
lradius 87.4934
lwrist -0.234012
lhand -11.1695 2.23731
lfingers 7.12502
lthumb 14.8572 31.6846
rfemur -10.7822 0.454399 25.5547
rtibia 66.3924
rfoot 1.89363 14.2276
rtoes -13.6571
lfemur -45.6439 0.876923 -15.0931
ltibia 71.5887
lfoot -29.8756 -18.292
ltoes -6.7822
372
root -0.901538 16.4888 -0.779151 -109.162 84.6428 -125.855
lowerback 23.8555 1.80034 -3.03499
upperback 3.23035 1.63124 -1.93179
thorax -9.76069 0.952284 -0.93546
lowerneck -5.62669 -2.07292 3.73715
upperneck -16.3318 -2.22695 0.277569
head -4.46402 -1.05469 -0.53048
rclavicle 1.43125e-014 2.78299e-014
rhumerus -40.5402 15.3412 -75.8
rradius 59.8839
rwrist -5.42471
rhand -15.6265 -19.3789
rfingers 7.12502
rthumb 10.5605 -49.0936
lclavicle 1.43125e-014 2.78299e-014
lhumerus -6.70143 -18.7483 53.1869
lradius 88.9702
lwrist 0.559646
lhand -11.2633 2.53524
lfingers 7.12502
lthumb 14.7668 31.9892
rfemur -12.646 -0.948497 25.0504
rtibia 70.4709
rfoot 1.07272 14.0886
rtoes -13.0463
lfemur -43.7657 0.513137 -14.8499
ltibia 69.6545
lfoot -29.382 -18.329
ltoes -7.28275
373
root -0.702226 16.6332 -0.780602 -108.987 84.6643 -125.493
lowerback 23.8661 1.79065 -3.20995
upperback 3.15084 1.58135 -1.76975
thorax -9.86433 0.936546 -0.64239
lowerneck -5.54864 -2.15722 3.81414
upperneck -16.4997 -2.31855 0.39047
head -4.5436 -1.10953 -0.502559
rclavicle 2.54444e-014 7.15625e-015
rhumerus -40.6852 15.4723 -74.2781
rradius 59.9095
rwrist -5.67203
rhand -15.4493 -19.3828
rfingers 7.12502
rthumb 10.7314 -49.0888
lclavicle 2.54444e-014 7.15625e-015
lhumerus -5.87421 -18.0633 51.1531
lradius 90.1792
lwrist 1.30485
lhand -11.4155 2.83258
lfingers 7.12502
lthumb 14.6202 32.2972
rfemur -14.6109 -2.2094 24.4289
rtibia 74.8472
rfoot 0.0354756 14.2186
rtoes -12.7829
lfemur -41.7207 0.140937 -14.7091
ltibia 67.5261
lfoot -28.8016 -18.3314
ltoes -7.71196
374
root -0.502355 16.7812 -0.78386 -108.764 84.7614 -125.005
lowerback 23.9286 1.78456 -3.42555
upperback 3.08669 1.52715 -1.58858
thorax -9.97919 0.921768 -0.304469
lowerneck -5.44269 -2.22732 3.87854
upperneck -16.629 -2.39523 0.487989
head -4.61387 -1.15718 -0.477485
rclavicle 1.59028e-014 -2.54444e-014
rhumerus -40.7815 15.647 -72.6307
rradius 59.8537
rwrist -5.8986
rhand -15.2555 -19.4608
rfingers 7.12502
rthumb 10.9183 -49.1569
lclavicle 1.59028e-014 -2.54444e-014
lhumerus -5.02487 -17.2208 49.0262
lradius 91.1106
lwrist 1.95529
lhand -11.5637 3.11465
lfingers 7.12502
lthumb 14.4774 32.5896
rfemur -16.6394 -3.30689 23.6851
rtibia 79.4267
rfoot -1.12698 14.6174
rtoes -12.8641
lfemur -39.4872 -0.222235 -14.6716
ltibia 65.1905
lfoot -28.1339 -18.2957
ltoes -8.01126
